<svg xmlns="http://www.w3.org/2000/svg" xmlns:xlink="http://www.w3.org/1999/xlink" width="184.021728515625" height="213.90985107421875" viewBox="0 0 184.021728515625 213.90985107421875" fill="none">
	<path d="M49.6221 208.333C49.9497 208.442 50.2773 208.588 50.6049 208.697C50.8597 208.77 51.0781 208.879 51.3329 208.952C51.3693 208.952 51.4057 208.988 51.4421 208.988C51.4785 208.988 51.5149 209.025 51.5877 209.025C51.6241 209.025 51.6605 209.061 51.7333 209.061C51.7697 209.061 51.8061 209.098 51.8061 209.098C52.0245 209.171 52.2429 209.243 52.4613 209.316C52.6069 209.353 52.7889 209.426 52.9345 209.462C53.0801 209.498 53.1893 209.535 53.3349 209.608C53.3713 209.608 53.4441 209.644 53.4805 209.644C53.6625 209.717 53.8809 209.753 54.0629 209.826C54.2085 209.863 54.354 209.899 54.4996 209.972C54.718 210.045 54.9728 210.118 55.1912 210.191C55.264 210.191 55.3004 210.227 55.3732 210.227L55.4096 210.227C55.446 210.227 55.4824 210.263 55.5188 210.263C55.5552 210.263 55.628 210.3 55.6644 210.3C55.81 210.336 55.9556 210.373 56.0648 210.409C56.174 210.446 56.2468 210.482 56.356 210.482C56.3924 210.482 56.4288 210.518 56.4288 210.518C56.4652 210.518 56.5016 210.555 56.5744 210.555C56.8656 210.628 57.1932 210.737 57.4844 210.81C57.5936 210.846 57.7028 210.883 57.7756 210.883C58.0668 210.956 58.358 211.029 58.6492 211.101C58.8676 211.138 59.0496 211.211 59.268 211.247C59.3044 211.247 59.3408 211.247 59.3408 211.284C59.7048 211.356 60.0324 211.466 60.3964 211.539C60.6876 211.611 61.0152 211.684 61.3064 211.757C61.5976 211.83 61.8524 211.866 62.1436 211.939C62.2164 211.939 62.2528 211.976 62.3256 211.976C62.3984 211.976 62.4348 212.012 62.5076 212.012C62.544 212.012 62.6168 212.049 62.6532 212.049C62.9444 212.121 63.2719 212.158 63.5631 212.231C63.5995 212.231 63.6359 212.231 63.6723 212.267C63.9635 212.304 64.2547 212.377 64.5459 212.449C64.5823 212.449 64.5823 212.449 64.6187 212.449C64.6915 212.449 64.7279 212.486 64.8007 212.486C65.0919 212.522 65.3467 212.595 65.6379 212.632C65.8563 212.668 66.0747 212.704 66.2931 212.741C66.5843 212.777 66.8755 212.85 67.1303 212.887L67.1667 212.887C67.3851 212.923 67.6035 212.959 67.8583 212.996C68.1131 213.032 68.3679 213.069 68.6591 213.105C68.7319 213.105 68.8411 213.142 68.9139 213.142C68.9867 213.142 69.0595 213.178 69.1323 213.178C69.6419 213.251 70.1879 213.324 70.6975 213.36C70.8067 213.36 70.9159 213.397 71.0251 213.397C71.1343 213.397 71.2071 213.397 71.2799 213.433C71.8259 213.506 72.3718 213.542 72.8814 213.579C74.301 213.688 75.6842 213.797 77.1038 213.834C77.395 213.834 77.6862 213.87 78.0138 213.87C78.3414 213.87 78.669 213.907 78.9966 213.907C79.1786 213.907 79.3242 213.907 79.5062 213.907C79.8338 213.907 80.1978 213.907 80.5254 213.907C80.7438 213.907 80.9258 213.907 81.1442 213.907C81.399 213.907 81.6901 213.907 81.9813 213.907C82.1997 213.907 82.4181 213.907 82.6729 213.907C82.7821 213.907 82.8549 213.907 82.9277 213.907C83.2917 213.907 83.6193 213.87 83.9833 213.87C84.2381 213.87 84.4929 213.834 84.7477 213.834C84.7841 213.834 84.7841 213.834 84.8205 213.834C84.8933 213.834 84.9297 213.834 85.0025 213.834C85.0753 213.834 85.1481 213.834 85.2209 213.834C85.4393 213.834 85.6577 213.797 85.9125 213.797C85.9489 213.797 85.9853 213.797 86.0217 213.797C86.3129 213.761 86.6405 213.761 86.9317 213.724C87.0045 213.724 87.0773 213.724 87.1137 213.724C87.4049 213.688 87.7325 213.688 88.0237 213.652C88.2785 213.652 88.5333 213.615 88.7517 213.579C88.7881 213.579 88.8245 213.579 88.8245 213.579C88.8973 213.579 89.0065 213.579 89.0793 213.542C89.1885 213.542 89.2613 213.506 89.3705 213.506C89.5889 213.506 89.7709 213.469 89.9893 213.433C90.0257 213.433 90.0257 213.433 90.0621 213.433C90.3169 213.397 90.5717 213.36 90.8265 213.36C91.154 213.324 91.518 213.287 91.8456 213.251C92.1368 213.214 92.428 213.178 92.7192 213.142C92.974 213.105 93.2288 213.069 93.4472 213.032C93.5564 213.032 93.6656 212.996 93.7384 212.996C93.7748 212.996 93.8112 212.996 93.8476 212.996C93.884 212.996 93.884 212.996 93.9204 212.996C93.9932 212.996 94.0296 212.959 94.1024 212.959C94.6848 212.85 95.2308 212.777 95.8132 212.668C95.8132 212.668 95.8496 212.668 95.886 212.668C96.2136 212.595 96.5412 212.559 96.8688 212.486C97.1964 212.413 97.524 212.34 97.888 212.304C98.252 212.231 98.616 212.158 98.98 212.085C99.2712 212.012 99.5988 211.939 99.89 211.903C100.218 211.83 100.545 211.757 100.873 211.684C101.2 211.611 101.528 211.539 101.856 211.429C102.183 211.356 102.511 211.247 102.838 211.174C103.166 211.101 103.494 210.992 103.821 210.919C104.112 210.846 104.404 210.774 104.695 210.664C105.059 210.555 105.423 210.446 105.787 210.336C106.114 210.227 106.442 210.154 106.769 210.045C107.133 209.936 107.497 209.826 107.861 209.717C108.153 209.608 108.444 209.535 108.735 209.426C109.063 209.316 109.354 209.207 109.681 209.098L109.718 209.098C110.337 208.879 110.955 208.66 111.574 208.442C111.975 208.296 112.411 208.114 112.812 207.968C113.03 207.895 113.285 207.786 113.503 207.677C113.831 207.568 114.122 207.422 114.45 207.276C114.777 207.13 115.069 207.021 115.396 206.875C115.687 206.766 115.942 206.62 116.233 206.511C116.27 206.511 116.306 206.475 116.343 206.475C116.634 206.329 116.925 206.22 117.216 206.074C117.507 205.928 117.835 205.782 118.126 205.673C118.417 205.527 118.709 205.418 119 205.272C119.036 205.236 119.109 205.236 119.145 205.199C119.437 205.054 119.728 204.908 119.983 204.799C120.055 204.762 120.128 204.726 120.201 204.689C120.347 204.617 120.492 204.544 120.638 204.471C120.747 204.434 120.82 204.362 120.929 204.325C121.038 204.289 121.147 204.216 121.257 204.179C121.402 204.107 121.548 204.034 121.657 203.961C121.766 203.924 121.875 203.851 121.948 203.815C121.948 203.815 121.985 203.815 122.021 203.779C122.239 203.669 122.421 203.56 122.64 203.451C122.676 203.451 122.676 203.414 122.713 203.414C122.822 203.341 122.967 203.269 123.076 203.196C123.258 203.086 123.44 203.014 123.586 202.904C123.732 202.831 123.877 202.722 124.023 202.649C124.096 202.613 124.205 202.576 124.278 202.504C124.35 202.467 124.46 202.394 124.532 202.358C124.678 202.285 124.824 202.212 124.933 202.139C124.969 202.103 125.006 202.103 125.078 202.066C125.115 202.066 125.115 202.03 125.151 202.03C125.224 201.993 125.297 201.957 125.333 201.921C125.442 201.884 125.515 201.811 125.624 201.775C125.697 201.738 125.77 201.702 125.843 201.666C125.916 201.629 126.025 201.556 126.098 201.52C126.17 201.483 126.243 201.447 126.316 201.411C126.352 201.411 126.389 201.374 126.425 201.338C126.425 201.338 126.462 201.338 126.462 201.301C126.498 201.301 126.498 201.265 126.534 201.265C126.644 201.192 126.753 201.119 126.862 201.083C127.08 200.937 127.299 200.828 127.481 200.682C127.517 200.682 127.554 200.645 127.59 200.609C127.626 200.573 127.663 200.573 127.736 200.536C127.772 200.5 127.845 200.463 127.881 200.463C128.136 200.281 128.427 200.135 128.682 199.953C128.791 199.88 128.864 199.844 128.973 199.771C129.119 199.662 129.301 199.553 129.483 199.443C129.556 199.407 129.592 199.37 129.628 199.334C129.738 199.261 129.883 199.188 129.992 199.115C130.138 199.006 130.284 198.897 130.466 198.824C130.684 198.678 130.939 198.496 131.157 198.35C131.266 198.277 131.339 198.205 131.448 198.168C131.594 198.059 131.74 197.986 131.849 197.877C131.994 197.767 132.14 197.695 132.249 197.585C132.358 197.512 132.431 197.439 132.54 197.367C132.65 197.294 132.759 197.221 132.868 197.112C132.941 197.075 133.014 197.002 133.086 196.966C133.305 196.82 133.523 196.638 133.742 196.492L133.778 196.456C134.033 196.237 134.324 196.055 134.579 195.837C134.87 195.618 135.161 195.399 135.416 195.181C135.707 194.962 135.962 194.744 136.253 194.525L136.29 194.489C136.799 194.051 137.345 193.651 137.855 193.213C138.11 192.995 138.364 192.776 138.619 192.558C138.656 192.558 138.656 192.521 138.692 192.485C138.91 192.266 139.165 192.084 139.384 191.865C139.42 191.829 139.456 191.793 139.493 191.793C139.711 191.61 139.93 191.392 140.148 191.21C140.184 191.173 140.257 191.137 140.294 191.1C140.548 190.845 140.84 190.627 141.094 190.372C141.568 189.935 142.004 189.534 142.441 189.097C142.659 188.878 142.914 188.659 143.133 188.441C143.351 188.222 143.569 188.004 143.788 187.822C143.97 187.639 144.188 187.421 144.37 187.239C144.552 187.056 144.734 186.874 144.916 186.692L144.953 186.656C145.426 186.146 145.899 185.636 146.372 185.126C146.481 185.016 146.591 184.907 146.663 184.798C146.809 184.652 146.955 184.506 147.064 184.324C147.209 184.178 147.319 184.033 147.464 183.887C147.537 183.778 147.646 183.705 147.719 183.595C148.047 183.231 148.374 182.867 148.665 182.466C148.811 182.284 148.957 182.102 149.102 181.956C149.139 181.92 149.175 181.883 149.211 181.847C149.321 181.701 149.466 181.555 149.575 181.373C149.612 181.337 149.648 181.264 149.721 181.227C149.903 181.009 150.085 180.79 150.267 180.572C150.485 180.317 150.704 180.025 150.886 179.77L150.922 179.734C151.359 179.187 151.759 178.604 152.196 178.058C152.779 177.256 153.361 176.455 153.943 175.617L153.98 175.58C154.016 175.544 154.016 175.508 154.053 175.471C154.417 174.961 154.744 174.451 155.108 173.905C155.181 173.795 155.254 173.722 155.29 173.613C155.472 173.358 155.618 173.103 155.8 172.812C155.982 172.52 156.164 172.229 156.346 171.901C156.528 171.609 156.71 171.282 156.892 170.99C157.074 170.699 157.256 170.407 157.401 170.116C157.547 169.861 157.693 169.606 157.838 169.351C157.875 169.278 157.911 169.205 157.947 169.132C158.093 168.841 158.239 168.586 158.421 168.294C158.603 168.003 158.748 167.675 158.93 167.383C159.258 166.764 159.585 166.145 159.913 165.525C160.24 164.906 160.568 164.25 160.859 163.631C161.15 163.048 161.405 162.429 161.696 161.846C161.733 161.809 161.733 161.736 161.769 161.7C162.024 161.154 162.242 160.607 162.497 160.061C162.679 159.623 162.861 159.186 163.043 158.749C163.152 158.458 163.262 158.203 163.371 157.911C163.516 157.583 163.626 157.255 163.735 156.927C163.844 156.6 163.99 156.272 164.099 155.944C164.172 155.689 164.281 155.47 164.354 155.215C164.426 154.997 164.499 154.778 164.608 154.523C164.645 154.45 164.645 154.377 164.681 154.304C164.718 154.195 164.754 154.122 164.79 154.013C164.79 153.976 164.79 153.976 164.827 153.94L164.827 153.904L164.827 153.867C164.827 153.867 164.827 153.831 164.863 153.831C164.972 153.539 165.045 153.284 165.154 152.993C165.154 152.956 165.191 152.92 165.191 152.883C165.191 152.847 165.227 152.811 165.227 152.738C165.3 152.556 165.336 152.41 165.373 152.228C165.373 152.191 165.409 152.118 165.409 152.082C165.409 152.046 165.409 152.009 165.446 152.009C165.482 151.863 165.518 151.754 165.555 151.608C165.555 151.572 165.591 151.499 165.591 151.463C165.628 151.39 165.664 151.28 165.664 151.208C165.7 151.135 165.7 151.062 165.737 150.989C165.737 150.953 165.773 150.88 165.773 150.843C165.846 150.552 165.955 150.297 166.028 150.005C166.028 149.969 166.064 149.933 166.064 149.896C166.064 149.823 166.101 149.787 166.101 149.714C166.101 149.677 166.137 149.605 166.137 149.568C166.174 149.495 166.174 149.386 166.21 149.313C166.246 149.24 166.246 149.204 166.246 149.131C166.246 149.095 166.283 149.058 166.283 149.022C166.356 148.694 166.465 148.366 166.538 148.038C166.538 148.002 166.574 147.929 166.574 147.892C166.902 147.309 167.011 146.909 167.12 146.508C167.12 146.472 167.156 146.435 167.156 146.399C167.193 146.289 167.193 146.216 167.229 146.107C167.229 146.071 167.266 146.034 167.266 145.998L167.266 145.961C167.266 145.925 167.302 145.889 167.302 145.852C172.762 123.009 165.992 99.9118 151.068 83.7361C142.623 74.5553 131.558 67.5968 118.599 64.0994C111.465 62.2049 104.294 61.4763 97.3056 61.8406C81.2534 62.715 66.1839 69.2362 54.6088 79.9107C47.8385 86.1406 42.2694 93.8277 38.4474 102.608C39.7214 100.167 41.2138 97.8351 42.8882 95.6857C43.0702 95.4671 43.2522 95.2121 43.4342 94.9935C44.8174 93.2812 46.3097 91.6418 47.9113 90.1116C50.5685 87.6343 53.5169 85.3755 56.7928 83.481C59.9232 81.6959 63.1264 80.275 66.4387 79.255C68.7319 78.5263 71.0615 78.0163 73.4274 77.652C73.7186 77.6155 73.9734 77.5791 74.2646 77.5427C74.483 77.5062 74.7014 77.4698 74.9198 77.4698C77.2494 77.1784 79.579 77.0691 81.9813 77.1419C81.9813 77.1419 81.9813 77.1419 82.0177 77.1419C85.6577 77.2512 89.3341 77.7613 92.974 78.7449C96.432 79.6921 99.708 80.9673 102.766 82.5703C105.204 83.8454 107.534 85.3391 109.681 87.0149C110.118 87.3428 110.555 87.7071 110.992 88.035C112.484 89.2737 113.904 90.5852 115.251 92.0425C117.726 94.702 119.983 97.653 121.875 100.932C123.659 104.065 125.078 107.271 126.098 110.586C129.592 119.512 131.048 128.875 130.684 138.092C130.029 153.831 123.986 169.096 113.285 181.009C108.589 186.219 103.02 190.809 96.6504 194.489C85.0389 201.192 72.299 204.107 59.8504 203.596C38.0834 202.722 17.1901 191.392 4.85059 171.755C4.88699 171.828 4.92339 171.864 4.95978 171.937C4.95978 171.974 4.99618 171.974 4.99618 172.01C4.99618 172.047 5.03258 172.083 5.03258 172.083C5.10538 172.192 5.14178 172.265 5.21458 172.374C5.21458 172.374 5.21458 172.411 5.25098 172.411C5.36018 172.593 5.46938 172.775 5.57858 172.957C5.57858 172.994 5.61498 172.994 5.61498 173.03C5.65138 173.067 5.68778 173.14 5.72418 173.176C5.76058 173.249 5.83338 173.322 5.86977 173.395C5.86977 173.431 5.90617 173.431 5.90617 173.467C5.97897 173.54 6.01537 173.65 6.08817 173.722C6.12457 173.759 6.16097 173.832 6.19737 173.868C6.23377 173.905 6.23377 173.941 6.27017 173.977C6.34297 174.087 6.37937 174.16 6.45217 174.269C6.52497 174.342 6.56137 174.451 6.63417 174.524C6.70697 174.597 6.74337 174.706 6.81616 174.779C6.92536 174.925 6.99816 175.07 7.10736 175.216C7.14376 175.253 7.14376 175.289 7.18016 175.325C7.21656 175.398 7.28936 175.508 7.36216 175.617C7.43496 175.726 7.50776 175.835 7.61696 175.981C7.65336 176.018 7.65336 176.054 7.68975 176.054C7.72615 176.091 7.72615 176.127 7.76255 176.163C7.76255 176.2 7.79895 176.2 7.79895 176.236C7.83535 176.309 7.90815 176.382 7.94455 176.455C8.05375 176.601 8.16295 176.746 8.27215 176.928C8.30855 176.965 8.30855 177.001 8.34495 177.038C8.34495 177.074 8.38135 177.074 8.38135 177.111C8.41775 177.147 8.45415 177.22 8.49055 177.256C8.52695 177.329 8.59974 177.366 8.63614 177.438C8.70894 177.548 8.81814 177.657 8.89094 177.766C8.92734 177.803 8.92734 177.839 8.96374 177.876C8.96374 177.912 9.00014 177.912 9.03654 177.949C9.07294 177.985 9.10934 178.021 9.10934 178.058C9.21854 178.204 9.36414 178.386 9.47334 178.531C9.54613 178.641 9.61893 178.714 9.69173 178.823C9.91013 179.114 10.1285 179.406 10.3469 179.661C10.5289 179.879 10.7109 180.098 10.8565 180.317C10.8929 180.353 10.9293 180.426 10.9657 180.499C11.0021 180.535 11.0385 180.572 11.0749 180.608C11.2569 180.827 11.4389 181.082 11.6573 181.3C11.8757 181.592 12.0941 181.847 12.3489 182.138C12.5673 182.393 12.7493 182.612 12.9677 182.867C13.0041 182.903 13.0041 182.94 13.0405 182.94C13.2225 183.158 13.4045 183.377 13.5865 183.559C13.6229 183.632 13.6957 183.668 13.7321 183.741C13.9869 183.996 14.2053 184.288 14.4601 184.543C14.6785 184.798 14.9333 185.053 15.1517 185.308C15.1881 185.344 15.1881 185.344 15.2245 185.381C15.8797 186.073 16.5349 186.801 17.2265 187.494C17.4084 187.676 17.5904 187.858 17.7724 188.04C17.8816 188.149 17.9544 188.222 18.0636 188.332C18.1364 188.404 18.2092 188.477 18.282 188.55C18.464 188.732 18.6824 188.951 18.9008 189.133C19.1556 189.388 19.4104 189.643 19.6652 189.862C19.8836 190.044 20.0656 190.226 20.284 190.445C20.3568 190.481 20.3932 190.554 20.466 190.59C20.466 190.627 20.5024 190.627 20.5024 190.627C20.7572 190.845 21.012 191.064 21.2304 191.283C21.4488 191.465 21.6308 191.647 21.8492 191.829C21.922 191.902 21.9584 191.938 22.0312 191.975C22.2132 192.12 22.3588 192.266 22.5408 192.412C22.5772 192.448 22.6136 192.485 22.65 192.521C22.7228 192.594 22.7592 192.631 22.832 192.667C22.9412 192.74 23.0504 192.849 23.1232 192.922C23.2324 193.031 23.3416 193.104 23.4508 193.213C23.4872 193.25 23.4872 193.25 23.5236 193.286C23.56 193.323 23.5964 193.323 23.5964 193.359C23.5964 193.359 23.6328 193.359 23.6328 193.396C23.6692 193.396 23.6692 193.432 23.7056 193.468C23.8876 193.614 24.0696 193.796 24.288 193.942C24.3244 193.978 24.3608 193.978 24.3608 194.015C24.3972 194.051 24.47 194.088 24.5064 194.124C24.6156 194.197 24.6884 194.27 24.7976 194.343C24.8704 194.379 24.9068 194.452 24.9796 194.489C25.1252 194.634 25.3072 194.744 25.4892 194.889C25.5984 194.962 25.7076 195.071 25.8532 195.181C25.9624 195.254 26.0352 195.326 26.1444 195.399C26.3264 195.545 26.5084 195.691 26.6903 195.8C26.7631 195.837 26.8359 195.909 26.8723 195.946C27.0907 196.092 27.3091 196.274 27.5275 196.419C27.5639 196.456 27.6003 196.492 27.6367 196.529C27.8551 196.674 28.0735 196.857 28.2919 197.002C28.3283 197.002 28.3283 197.039 28.3647 197.039C28.4375 197.075 28.4739 197.112 28.5467 197.184C28.7651 197.33 28.9471 197.476 29.1655 197.622C29.2019 197.622 29.2019 197.658 29.2383 197.658C29.4567 197.804 29.6751 197.95 29.8935 198.095C29.9663 198.132 30.0391 198.205 30.1119 198.241C30.4031 198.423 30.6943 198.642 30.9855 198.824C31.2403 199.006 31.4951 199.188 31.7863 199.334C31.8227 199.37 31.8591 199.37 31.8955 199.407C32.1867 199.589 32.4415 199.771 32.7327 199.953C32.7327 199.953 32.7327 199.953 32.7691 199.953C33.0603 200.135 33.3515 200.318 33.6063 200.5C33.9339 200.718 34.2615 200.901 34.5891 201.119C34.8803 201.301 35.1351 201.447 35.4263 201.629C35.6811 201.775 35.8994 201.921 36.1542 202.03C36.2634 202.103 36.3726 202.139 36.4818 202.212C36.7366 202.358 36.9914 202.504 37.2462 202.649C37.5374 202.831 37.865 202.977 38.1562 203.159C38.4474 203.341 38.775 203.487 39.0662 203.669C39.3574 203.815 39.6486 203.997 39.9762 204.143C40.3402 204.325 40.7406 204.507 41.1046 204.689C41.3594 204.835 41.6142 204.944 41.9054 205.09C42.233 205.236 42.5242 205.382 42.8518 205.527C43.1066 205.637 43.3614 205.746 43.6162 205.892C43.7982 205.965 43.9802 206.037 44.1258 206.11C44.3442 206.183 44.5262 206.292 44.7446 206.365C45.0721 206.511 45.3997 206.657 45.6909 206.766C46.0185 206.912 46.3461 207.021 46.6737 207.167C47.0013 207.312 47.3289 207.422 47.6565 207.568C48.0205 207.713 48.3845 207.859 48.7485 208.005C49.0397 208.114 49.3309 208.223 49.6221 208.333Z"   fill="#FFF143" >
	</path>
	<g style="mix-blend-mode:multiply">
		<path d="M77.1765 116.306C56.9748 110.04 35.135 115.905 21.7035 130.988C9.98287 144.176 12.458 162.501 27.0179 170.225C46.4917 180.535 74.2646 176.054 89.5888 160.133C98.6523 150.698 101.055 139.877 95.6675 129.822C91.6636 122.317 84.784 118.31 77.1765 116.306Z"   fill="#FFF143" >
		</path>
	</g>
	<path     fill="#20A162"  d="M113.39 143.7C115.792 135.321 118.308 126.943 120.82 118.6C129.52 89.8189 138.692 61.2182 147.61 32.51L147.61 32.48C148.302 30.1484 151.431 29.9677 152.45 32.19C152.523 32.3722 152.631 32.5478 152.74 32.73C158.71 43.8417 164.721 54.8812 170.8 65.92C172.948 69.7818 176.878 71.0623 180.3 69.35C183.758 67.5284 185.098 63.5182 183.06 59.62C173.378 41.0398 163.585 22.5338 153.83 3.99C152.374 1.22119 150.158 -0.162159 147.1 0.02C143.97 0.23859 142.073 2.13189 141.09 5.01C140.762 5.92079 140.471 6.86277 140.18 7.81C130.316 39.6878 120.454 71.6022 110.59 103.48C110.444 103.99 110.266 104.506 110.12 104.98C108.773 109.315 107.422 113.72 105.82 118.82C101.452 114.63 97.7828 110.99 93.16 108.44C69.1363 95.0696 35.0282 101.04 15.7 118.6C6.1997 127.307 -0.281197 137.727 0.01 151.17C0.337596 166.471 11.0402 179.656 27.42 185.23C44.273 190.95 60.9794 189.934 77.25 183.34C95.4862 175.944 107.712 163.41 113.39 143.7">
	</path>
</svg>
